Coordinates
version=1
nRows=9
nColumns=36
inDegrees=yes

Units are S.I. units (second, meters, Newtons, ...)
If the header above contains a line with 'inDegrees', this indicates whether rotational values are in degrees (yes) or radians (no).

endheader
time	pelvis_tilt	pelvis_list	pelvis_rotation	pelvis_tx	pelvis_ty	pelvis_tz	hip_flexion_r	hip_adduction_r	hip_rotation_r	knee_angle_r	knee_angle_r_beta	ankle_angle_r	subtalar_angle_r	mtp_angle_r	hip_flexion_l	hip_adduction_l	hip_rotation_l	knee_angle_l	knee_angle_l_beta	ankle_angle_l	subtalar_angle_l	mtp_angle_l	lumbar_extension	lumbar_bending	lumbar_rotation	arm_flex_r	arm_add_r	arm_rot_r	elbow_flex_r	pro_sup_r	arm_flex_l	arm_add_l	arm_rot_l	elbow_flex_l	pro_sup_l
      1.63750000	    -11.32345453	     -0.93318820	     -1.38512187	     -0.97104379	      1.21506002	     -0.10817694	     15.09299911	      0.00059682	      4.06899179	     11.42546815	      0.19941204	      2.91984957	    -21.51201498	     -7.49999987	     16.77029379	     -1.48214214	     -1.28796239	     15.36460413	      0.26816293	      6.96150947	    -14.47269923	     -7.49999987	     -2.75127196	      2.72434940	      0.77091896	     -0.99822061	     -9.23676802	      4.40251983	     36.78055580	     76.87627365	     -0.17349841	     -9.56783841	     12.33791412	     34.28232791	     86.35246401
      1.64166670	    -11.39531710	     -0.90117288	     -1.34183682	     -0.97458001	      1.20946277	     -0.10680102	     15.37659485	     -0.00449652	      3.90388298	     11.55556169	      0.20168260	      2.71582556	    -21.72005277	     -7.49999987	     17.08680404	     -1.51197530	     -1.41779787	     15.70463207	      0.27409754	      6.73497091	    -15.00338343	     -7.49999987	     -3.12453396	      2.67801734	      0.76708657	     -1.14872329	     -9.27186334	      4.04821822	     36.66290242	     76.79089767	     -0.41669514	     -9.72689792	     11.95256685	     34.21558247	     85.96085292
      1.64583330	    -11.51664669	     -0.88383769	     -1.40300459	     -0.97725056	      1.20902685	     -0.10551046	     15.79620276	      0.07430726	      3.99337987	     11.82705945	      0.20642113	      2.45287803	    -22.25168789	     -7.49999987	     17.52421139	     -1.66531905	     -1.74843542	     16.13734511	      0.28164980	      6.57647052	    -15.41127480	     -7.49999987	     -3.43067985	      2.61906711	      0.89437596	     -1.34791963	     -9.34959606	      3.80336214	     36.59914267	     75.66535873	     -0.64882982	     -9.89454397	     11.75273464	     34.18237669	     84.62692583
      1.65000000	    -11.55629838	     -0.86145108	     -1.44474044	     -0.97962267	      1.21322039	     -0.10510721	     15.97383933	      0.12905130	      3.88421681	     11.82937472	      0.20646154	      2.41000076	    -22.25558788	     -7.49999987	     17.74361038	     -1.73602931	     -1.75810756	     16.17306084	      0.28227316	      6.48754047	    -15.37481394	     -7.49999987	     -3.85241729	      2.56846726	      0.94864071	     -1.52135203	     -9.48532200	      3.77911551	     36.48098316	     75.67356047	     -0.89121151	    -10.12201856	     11.72307202	     34.03125032	     84.63720801
      1.65416670	    -11.78941613	     -0.91929012	     -1.50536649	     -0.98322894	      1.21036046	     -0.10544303	     16.70333571	      0.26186677	      3.57581052	     12.39399373	      0.21631600	      2.30146428	    -22.26456507	     -7.49999987	     18.54590504	     -1.93951559	     -1.96739644	     16.77134117	      0.29271512	      6.31944432	    -15.37955119	     -7.49999987	     -4.16895395	      2.63228024	      1.02593663	     -1.43396320	     -9.60479490	      3.54460569	     36.00491233	     75.10521450	     -0.85101423	    -10.30027938	     11.47911474	     33.65049195	     83.78493697
      1.65833330	    -12.19928132	     -0.89565061	     -1.65534555	     -0.98595740	      1.21230813	     -0.10520364	     17.63506699	      0.33603135	      3.55370509	     12.86714611	      0.22457406	      1.95616906	    -22.69927638	     -7.49999987	     19.42688501	     -2.01140342	     -2.01085102	     17.13934897	      0.29913807	      6.22138957	    -15.27406121	     -7.49999987	     -4.30104962	      2.62949683	      1.14587238	     -1.52724256	     -9.65549854	      2.57243641	     35.77205266	     79.08414292	     -0.98616621	    -10.31221518	     10.26852659	     33.44558526	     88.55429562
      1.66250000	    -12.39497250	     -0.86489605	     -1.70256787	     -0.98652747	      1.21039520	     -0.10541035	     18.16511765	      0.32504136	      3.36977386	     13.04375284	      0.22765643	      1.92131735	    -22.30844056	     -7.49999987	     19.99123031	     -2.03458030	     -2.03847927	     17.42443557	      0.30411377	      6.16888951	    -15.06263218	     -7.49999987	     -4.62403503	      2.64920049	      1.09137518	     -1.73409544	     -9.82719244	      2.40213228	     35.77341641	     78.11587233	     -1.27269427	    -10.49171021	     10.12338195	     33.45387618	     87.27819614
      1.66666670	    -12.58647322	     -0.81337991	     -1.72495513	     -0.98758886	      1.21113269	     -0.10611023	     18.70775142	      0.27871501	      3.36262399	     13.35185821	      0.23303389	      1.57124732	    -22.66097408	     -7.49999987	     20.53550485	     -1.98259049	     -1.91333067	     17.78408298	      0.31039080	      6.09081681	    -15.13892003	     -7.49999987	     -4.95785727	      2.66283226	      1.09015810	     -1.78716648	     -9.99004400	      2.28307674	     35.41653384	     77.47716975	     -1.42082344	    -10.53582212	     10.07313139	     33.04198364	     86.49527545
      1.67083330	    -12.82461618	     -0.75577918	     -1.74218594	     -0.98946185	      1.21376384	     -0.10613948	     19.23110660	      0.20421854	      3.26926068	     13.54507161	      0.23640610	      1.40250037	    -22.50759479	     -7.49999987	     21.07502341	     -1.94009252	     -1.96523202	     18.11391269	      0.31614742	      5.99184314	    -15.33704446	     -7.49999987	     -5.14917041	      2.67283104	      1.13075058	     -1.90025387	    -10.15054337	      2.05030361	     34.94943004	     78.85068014	     -1.50198087	    -10.69655478	     10.30545124	     32.49860474	     87.81446202
